<?xml version="1.0" encoding="UTF-8"?>
<svg xmlns="http://www.w3.org/2000/svg" xmlns:xlink="http://www.w3.org/1999/xlink" width="50pt" height="50pt" viewBox="0 0 50 50" version="1.1">
<g id="surface8658">
<path style=" stroke:none;fill-rule:nonzero;fill:rgb(43.137255%,82.352941%,29.019608%);fill-opacity:1;" d="M 25 5 C 13.953125 5 5 13.953125 5 25 C 5 36.046875 13.953125 45 25 45 C 36.046875 45 45 36.046875 45 25 C 45 13.953125 36.046875 5 25 5 Z M 36.179688 21.179688 L 23.578125 33.777344 C 23.265625 34.089844 22.839844 34.265625 22.398438 34.265625 C 21.957031 34.265625 21.535156 34.089844 21.222656 33.777344 L 15.464844 28.023438 C 14.816406 27.371094 14.816406 26.316406 15.464844 25.667969 C 16.117188 25.015625 17.171875 25.015625 17.824219 25.667969 L 22.398438 30.242188 L 33.820312 18.820312 C 34.472656 18.171875 35.527344 18.171875 36.179688 18.820312 C 36.828125 19.472656 36.828125 20.527344 36.179688 21.179688 Z M 36.179688 21.179688 "/>
</g>
</svg>
