<?xml version="1.0" encoding="UTF-8"?>
<svg xmlns="http://www.w3.org/2000/svg" xmlns:xlink="http://www.w3.org/1999/xlink" width="50pt" height="50pt" viewBox="0 0 50 50" version="1.1">
<g id="surface1014">
<path style=" stroke:none;fill-rule:nonzero;fill:#2a2a2a;fill-opacity:1;" d="M 46.667969 11.5625 C 45.070312 12.269531 43.359375 12.746094 41.558594 12.960938 C 43.398438 11.863281 44.804688 10.121094 45.46875 8.042969 C 43.75 9.0625 41.847656 9.800781 39.820312 10.203125 C 38.199219 8.472656 35.890625 7.394531 33.332031 7.394531 C 28.421875 7.394531 24.441406 11.375 24.441406 16.285156 C 24.441406 16.980469 24.523438 17.660156 24.671875 18.308594 C 17.285156 17.9375 10.734375 14.398438 6.347656 9.019531 C 5.585938 10.332031 5.148438 11.859375 5.148438 13.488281 C 5.148438 16.574219 6.714844 19.296875 9.101562 20.886719 C 7.644531 20.839844 6.273438 20.441406 5.074219 19.777344 C 5.074219 19.816406 5.074219 19.851562 5.074219 19.886719 C 5.074219 24.195312 8.136719 27.789062 12.203125 28.605469 C 11.460938 28.808594 10.671875 28.917969 9.863281 28.917969 C 9.289062 28.917969 8.730469 28.859375 8.191406 28.757812 C 9.320312 32.289062 12.605469 34.863281 16.496094 34.933594 C 13.453125 37.316406 9.621094 38.738281 5.453125 38.738281 C 4.738281 38.738281 4.027344 38.699219 3.332031 38.613281 C 7.265625 41.136719 11.9375 42.609375 16.960938 42.609375 C 33.3125 42.609375 42.253906 29.0625 42.253906 17.3125 C 42.253906 16.929688 42.246094 16.546875 42.226562 16.164062 C 43.964844 14.910156 45.476562 13.34375 46.667969 11.5625 Z M 46.667969 11.5625 "/>
</g>
</svg>
