<svg xmlns="http://www.w3.org/2000/svg" width="190" height="48" viewBox="0 0 190 48">
  <g fill="none" fill-rule="evenodd">
    <rect width="190" height="48" fill="#000" rx="10"></rect>
    <g fill="#FFF" fill-rule="nonzero" transform="translate(12.777 10.6)">
      <path d="M17.7567751,13.896492 C17.7830035,11.8607269 18.8502666,9.98029933 20.5846471,8.91402 C19.4855342,7.34429132 17.7105895,6.38473002 15.7952551,6.324804 C13.7801671,6.113292 11.8266271,7.5306 10.7997751,7.5306 C9.75305107,7.5306 8.17205107,6.345804 6.46957507,6.380832 C4.22956058,6.4532021 2.19188368,7.69590658 1.10207107,9.654276 C-1.21872893,13.67238 0.512379071,19.57764 2.73551107,22.825572 C3.84779107,24.415992 5.14772707,26.192532 6.84866707,26.129532 C8.51313907,26.060496 9.13478707,25.068156 11.1439471,25.068156 C13.1344591,25.068156 13.7176951,26.129532 15.4531471,26.089476 C17.2392031,26.060484 18.3645031,24.491988 19.4377591,22.886508 C20.2369304,21.7532756 20.8518915,20.5008071 21.2598631,19.175496 C19.138571,18.2782936 17.7592509,16.1997172 17.7567751,13.896492 Z M14.4788191,4.188744 C15.452651,3.01969429 15.9324211,1.51707894 15.8162431,0 C14.3284444,0.156264584 12.9541353,0.867335616 11.9671471,1.991532 C10.9925415,3.10070284 10.4988086,4.55179522 10.5946951,6.0252 C12.1024432,6.04072412 13.5340184,5.36385986 14.4788191,4.188744 Z"></path>
      <g transform="translate(30.134 9.8)">
        <polygon points="13.35 16.195 13.35 5.227 13.277 5.227 8.795 16.081 7.085 16.081 2.591 5.227 2.519 5.227 2.519 16.195 .417 16.195 .417 1.294 3.087 1.294 7.898 13.056 7.981 13.056 12.783 1.294 15.463 1.294 15.463 16.195"></polygon>
        <path d="M17.2385223,13.10742 C17.2385223,11.20782 18.6909001,10.060548 21.2682245,9.90582 L24.2361338,9.74058 L24.2361338,8.914404 C24.2361338,7.706196 23.4421152,7.024164 22.0914968,7.024164 C21.0564632,6.88621786 20.080712,7.54161516 19.8146971,8.553456 L17.7331898,8.553456 C17.7951699,6.590568 19.6194166,5.197212 22.1534769,5.197212 C24.7401654,5.197212 26.4509773,6.611664 26.4509773,8.749212 L26.4509773,16.195308 L24.3180155,16.195308 L24.3180155,14.408208 L24.2665251,14.408208 C23.570773,15.6424303 22.2593341,16.3988082 20.8449011,16.381644 C19.9226403,16.4720695 19.0051456,16.1681016 18.3184036,15.54461 C17.6316618,14.9211185 17.2395041,14.0360556 17.2385223,13.10742 Z M24.2361338,12.126564 L24.2361577,11.28984 L21.566426,11.45508 C20.2368349,11.538288 19.4849187,12.116016 19.4849187,13.04532 C19.4849187,13.99572 20.2684117,14.615628 21.4635169,14.615628 C22.1627835,14.6631682 22.8515702,14.4256742 23.37361,13.957027 C23.8956498,13.4883797 24.2066877,12.8283079 24.2361577,12.126564 L24.2361338,12.126564 Z M35.7955473,9.069144 C35.5938126,7.83687446 34.4824758,6.96578969 33.2404357,7.066404 C31.5296237,7.066404 30.3964866,8.501952 30.3964866,10.763664 C30.3964866,13.07694 31.5401493,14.470308 33.2603134,14.470308 C34.4871207,14.593428 35.5977278,13.738668 35.7955473,12.519108 L37.9389868,12.519108 C37.6616909,14.8552649 35.5782371,16.5451441 33.2404357,16.33008 C30.148614,16.33008 28.129051,14.2125 28.129051,10.763676 C28.129051,7.386336 30.1485781,5.197272 33.2194204,5.197272 C35.5745487,4.99713228 37.6595697,6.71486532 37.9191809,9.069144 L35.7955473,9.069144 Z M52.3996713,12.16758 L46.731651,12.16758 L45.3704831,16.19532 L42.969735,16.19532 L48.3383924,1.29372 L50.8326854,1.29372 L56.2013427,16.19532 L53.7596178,16.19532 L52.3996713,12.16758 Z M47.3186899,10.308984 L51.8115307,10.308984 L49.5967111,3.77226 L49.534731,3.77226 L47.3186899,10.308984 Z M67.7958176,10.763676 C67.7958176,14.139852 65.9926222,16.308984 63.2714599,16.308984 C61.8649149,16.3827175 60.5400263,15.6444368 59.8603615,14.408184 L59.8088711,14.408184 L59.8088711,19.78944 L57.5835618,19.78944 L57.5835618,5.330856 L59.7375748,5.330856 L59.7375748,7.137888 L59.7785037,7.137888 C60.4883614,5.90938355 61.8146798,5.17141993 63.230531,5.21718 C65.9820966,5.217192 67.7958176,7.396872 67.7958176,10.763676 Z M65.5084922,10.763676 C65.5084922,8.564076 64.3741817,7.117968 62.643492,7.117968 C60.9432056,7.117968 59.7995429,8.594532 59.7995429,10.763676 C59.7995429,12.95274 60.9432056,14.418756 62.643492,14.418756 C64.3741936,14.418756 65.5084922,12.983208 65.5084922,10.763676 Z M79.7282375,10.763676 C79.7282375,14.139852 77.925042,16.308984 75.2038797,16.308984 C73.7973348,16.3827175 72.4724462,15.6444368 71.7927814,14.408184 L71.741291,14.408184 L71.741291,19.78944 L69.5159457,19.78944 L69.5159457,5.330856 L71.6699587,5.330856 L71.6699587,7.137888 L71.7108876,7.137888 C72.4207473,5.9093855 73.7470645,5.17142261 75.1629149,5.21718 C77.9145164,5.217192 79.7282375,7.396872 79.7282375,10.763676 Z M77.4409121,10.763676 C77.4409121,8.564076 76.3066015,7.117968 74.5759118,7.117968 C72.8756255,7.117968 71.7319628,8.594532 71.7319628,10.763676 C71.7319628,12.95274 72.8756255,14.418756 74.5759118,14.418756 C76.3066135,14.418756 77.4409241,12.983208 77.4409241,10.763676 L77.4409121,10.763676 Z M87.614586,12.043356 C87.7794752,13.521096 89.2119873,14.491356 91.1695223,14.491356 C93.0452234,14.491356 94.3946922,13.521048 94.3946922,12.188616 C94.3946922,11.031972 93.5807959,10.339416 91.6536522,9.864792 L89.7265085,9.399552 C86.9959941,8.738616 85.7283712,7.458924 85.7283712,5.38236 C85.7283712,2.811264 87.964242,1.045248 91.139119,1.045248 C94.2812336,1.045248 96.4352706,2.811264 96.5077763,5.38236 L94.2613559,5.38236 C94.126882,3.895248 92.900188,2.9976 91.1075182,2.9976 C89.3148484,2.9976 88.0881544,3.905808 88.0881544,5.22768 C88.0881544,6.281196 88.8716594,6.901116 90.7882775,7.37568 L92.4265837,7.778808 C95.4775124,8.501856 96.7451353,9.730008 96.7451353,11.909664 C96.7451353,14.697552 94.5291422,16.443648 91.0046092,16.443648 C87.7069335,16.443648 85.4804268,14.738568 85.3365888,12.043248 L87.614586,12.043356 Z M101.547829,2.75976 L101.547829,5.330856 L103.609458,5.330856 L103.609458,7.096872 L101.547829,7.096872 L101.547829,13.086324 C101.547829,14.016792 101.960626,14.450388 102.866894,14.450388 C103.111643,14.4461111 103.355996,14.4288871 103.598933,14.398788 L103.598933,16.154256 C103.191474,16.2305515 102.777326,16.2651054 102.362887,16.257384 C100.167957,16.257384 99.311958,15.431208 99.311958,13.324176 L99.311958,7.096872 L97.7356199,7.096872 L97.7356199,5.330856 L99.311958,5.330856 L99.311958,2.75976 L101.547829,2.75976 Z M104.802217,10.763676 C104.802217,7.34532 106.811218,5.197272 109.944017,5.197272 C113.087329,5.197272 115.086978,7.345272 115.086978,10.763676 C115.086978,14.191416 113.097854,16.33008 109.944017,16.33008 C106.791364,16.33008 104.802217,14.191404 104.802217,10.763676 Z M112.81953,10.763676 C112.81953,8.418756 111.7472,7.034772 109.944005,7.034772 C108.140809,7.034772 107.068479,8.429304 107.068479,10.763676 C107.068479,13.117968 108.140809,14.491416 109.944005,14.491416 C111.7472,14.491416 112.819554,13.117968 112.819554,10.763676 L112.81953,10.763676 Z M116.922936,5.330856 L119.045372,5.330856 L119.045372,7.180056 L119.096862,7.180056 C119.392844,5.98964209 120.481276,5.17035787 121.70459,5.217168 C121.961041,5.21627068 122.216785,5.2441809 122.467032,5.300376 L122.467032,7.386312 C122.143278,7.28717324 121.805547,7.24165484 121.467159,7.251552 C120.812931,7.22495814 120.179784,7.48624686 119.733965,7.96681189 C119.288145,8.44737694 119.074191,9.09920705 119.148281,9.751152 L119.148281,16.195296 L116.922936,16.195296 L116.922936,5.330856 Z M132.726024,13.004292 C132.426661,14.976552 130.510031,16.330068 128.057829,16.330068 C124.903991,16.330068 122.946444,14.212488 122.946444,10.815228 C122.946444,7.40742 124.914516,5.19726 127.964284,5.19726 C130.963758,5.19726 132.849984,7.2621 132.849984,10.556244 L132.849984,11.320308 L125.19284,11.320308 L125.19284,11.455068 C125.121349,12.2639059 125.40005,13.0645433 125.958048,13.6533239 C126.516047,14.2421045 127.299562,14.56228 128.109295,14.532408 C129.189208,14.6338075 130.207355,14.0123732 130.612952,13.00428 L132.726024,13.004292 Z M125.203345,9.761724 L130.623466,9.761712 C130.66385,9.03491699 130.39985,8.3241877 129.895068,7.80075786 C129.390286,7.27732801 128.690492,6.98865649 127.964284,7.004292 C127.232334,6.99991789 126.528963,7.28872619 126.010511,7.80652417 C125.492058,8.32432217 125.201481,9.02820559 125.203345,9.761724 Z"></path>
      </g>
    </g>
    <g fill="#FFF" fill-rule="nonzero" transform="translate(42.91 9.6)">
      <path d="M3.38422752,0.8772 C4.32895333,0.809261017 5.25429137,1.16945691 5.90554855,1.85864618 C6.55680573,2.54783545 6.86533595,3.49337375 6.74621834,4.435008 C6.74621834,6.722508 5.51251924,8.037408 3.38422752,8.037408 L0.80339465,8.037408 L0.80339465,0.8772 L3.38422752,0.8772 Z M1.9131335,7.0248 L3.26026726,7.0248 C3.9354171,7.06524241 4.59281188,6.79867081 5.04991771,6.29910215 C5.50702353,5.79953348 5.71517558,5.1201533 5.61657783,4.4496 C5.70800213,3.78182944 5.49685247,3.10805546 5.04088002,2.61256078 C4.58490756,2.1170661 3.93182921,1.85170356 3.26026726,1.889052 L1.9131335,1.889052 L1.9131335,7.0248 Z M7.99979516,5.333208 C7.90733644,4.36467006 8.37077024,3.42733432 9.19573373,2.91431684 C10.0206972,2.40129936 11.0645566,2.40129936 11.88952,2.91431684 C12.7144835,3.42733432 13.1779174,4.36467006 13.0854586,5.333208 C13.1796764,6.30278671 12.7166657,7.24194046 11.8909707,7.75606236 C11.0652758,8.27018426 10.019978,8.27018426 9.19428305,7.75606236 C8.3685881,7.24194046 7.90557729,6.30278671 7.99979516,5.333208 Z M11.9909034,5.333208 C11.9909034,4.161924 11.4658446,3.476964 10.5443811,3.476964 C9.6193972,3.476964 9.09905631,4.161924 9.09905631,5.33322 C9.09905631,6.513888 9.61943312,7.193568 10.5443811,7.193568 C11.4658566,7.193556 11.9909154,6.509184 11.9909154,5.333208 L11.9909034,5.333208 Z"></path>
      <polygon points="19.845 8.038 18.741 8.038 17.628 4.057 17.543 4.057 16.434 8.038 15.341 8.038 13.853 2.634 14.933 2.634 15.899 6.757 15.979 6.757 17.088 2.634 18.108 2.634 19.217 6.757 19.301 6.757 20.262 2.634 21.327 2.634"></polygon>
      <path d="M22.5762135,2.633784 L23.600586,2.633784 L23.600586,3.49218 L23.6801088,3.49218 C23.9566423,2.86017353 24.6028211,2.47356896 25.2891852,2.52948 C25.8206346,2.48943812 26.3414175,2.69374788 26.7044909,3.08472248 C27.0675643,3.47569709 27.233528,4.01090851 27.1555223,4.53924 L27.1555223,8.03724 L26.0913824,8.03724 L26.0913824,4.807032 C26.0913824,3.938676 25.7148436,3.506832 24.927842,3.506832 C24.567368,3.49000694 24.2175376,3.63177908 23.9700654,3.89498014 C23.7225932,4.1581812 23.6021606,4.51656121 23.6403414,4.876164 L23.6403414,8.0373 L22.5762015,8.0373 L22.5762135,2.633784 Z"></path>
      <polygon points="28.851 .524 29.915 .524 29.915 8.038 28.851 8.038"></polygon>
      <path d="M31.3945511,5.333208 C31.3020923,4.36467006 31.7655262,3.42733432 32.5904896,2.91431684 C33.4154531,2.40129936 34.4593125,2.40129936 35.284276,2.91431684 C36.1092394,3.42733432 36.5726733,4.36467006 36.4802145,5.333208 C36.5744323,6.30278671 36.1114216,7.24194046 35.2857266,7.75606236 C34.4600317,8.27018426 33.4147339,8.27018426 32.589039,7.75606236 C31.763344,7.24194046 31.3003333,6.30278671 31.3945511,5.333208 Z M35.3856594,5.333208 C35.3856594,4.161924 34.8606005,3.476964 33.9391371,3.476964 C33.0141531,3.476964 32.4938122,4.161924 32.4938122,5.33322 C32.4938122,6.513888 33.014189,7.193568 33.9391371,7.193568 C34.8606125,7.193556 35.3856713,6.509184 35.3856713,5.333208 L35.3856594,5.333208 Z M37.600491,6.509184 C37.600491,5.536524 38.3231773,4.975788 39.6059839,4.896096 L41.0665524,4.811724 L41.0665524,4.34532 C41.0665524,3.774612 40.6900135,3.452352 39.9626571,3.452352 C39.368613,3.452352 38.9569888,3.670908 38.8388721,4.05294 L37.8086441,4.05294 C37.9173967,3.124812 38.7885911,2.529504 40.0117646,2.529504 C41.3635804,2.529504 42.1260222,3.203904 42.1260222,4.34532 L42.1260222,8.037312 L41.1016377,8.037312 L41.1016377,7.27794 L41.0174448,7.27794 C40.6695234,7.8324916 40.0508058,8.15659588 39.3978428,8.12634 C38.9401,8.17405417 38.4835774,8.02549279 38.1411356,7.71738293 C37.7986938,7.40927308 37.6022944,6.97037197 37.600491,6.509184 Z M41.0665524,6.04746 L41.0665524,5.595708 L39.7498219,5.68008 C39.0072578,5.72988 38.6704744,5.983008 38.6704744,6.459372 C38.6704744,6.945696 39.0914507,7.228704 39.670347,7.228704 C40.0130412,7.26346783 40.3551417,7.15737006 40.6183345,6.93469871 C40.8815273,6.71202736 41.0432758,6.39184927 41.0665524,6.04746 Z M43.5246104,5.333208 C43.5246104,3.625788 44.4004869,2.544144 45.7628163,2.544144 C46.4507248,2.51238016 47.0950148,2.88176744 47.4163302,3.492144 L47.495853,3.492144 L47.495853,0.5244 L48.5599929,0.5244 L48.5599929,8.037288 L47.5402904,8.037288 L47.5402904,7.183572 L47.4560976,7.183572 C47.1104939,7.78888438 46.458266,8.15202778 45.7628283,8.12634 C44.3911228,8.1264 43.5246104,7.044732 43.5246104,5.333208 Z M44.6238716,5.333208 C44.6238716,6.479304 45.1629646,7.168956 46.0645623,7.168956 C46.961454,7.168956 47.5157666,6.469356 47.5157666,5.3379 C47.5157666,4.211724 46.9556344,3.502152 46.0645623,3.502152 C45.1687603,3.502152 44.6238237,4.196484 44.6238237,5.333208 L44.6238716,5.333208 Z M52.9627254,5.333208 C52.8703376,4.3646067 53.3338445,3.42724723 54.1588692,2.91422184 C54.983894,2.40119645 56.0278069,2.40119645 56.8528316,2.91422184 C57.6778564,3.42724723 58.1413633,4.3646067 58.0489755,5.333208 C58.1430737,6.30282143 57.6799781,7.24194863 56.8542421,7.75604789 C56.0285063,8.27014715 54.9831946,8.27014715 54.1574588,7.75604789 C53.3317228,7.24194863 52.8686272,6.30282143 52.9627254,5.333208 Z M56.9538336,5.333208 C56.9538336,4.161924 56.4287748,3.476964 55.5073113,3.476964 C54.5823274,3.476964 54.0619865,4.161924 54.0619865,5.33322 C54.0619865,6.513888 54.5823633,7.193568 55.5073113,7.193568 C56.4287389,7.193556 56.9538456,6.509184 56.9538456,5.333208 L56.9538336,5.333208 Z M59.4767936,2.633784 L60.5011781,2.633784 L60.5011781,3.49218 L60.5807009,3.49218 C60.8572344,2.86017353 61.5034132,2.47356896 62.1897773,2.52948 C62.7212267,2.48943812 63.2420096,2.69374788 63.605083,3.08472248 C63.9681564,3.47569709 64.1341201,4.01090851 64.0561144,4.53924 L64.0561144,8.03724 L62.9919745,8.03724 L62.9919745,4.807032 C62.9919745,3.938676 62.6154357,3.506832 61.8284341,3.506832 C61.4679601,3.49000694 61.1181297,3.63177908 60.8706575,3.89498014 C60.6231853,4.1581812 60.5027527,4.51656121 60.5409335,4.876164 L60.5409335,8.0373 L59.4767936,8.0373 L59.4767936,2.633784 Z M70.0691088,1.288476 L70.0691088,2.658396 L71.2373312,2.658396 L71.2373312,3.556644 L70.0691088,3.556644 L70.0691088,6.33516 C70.0691088,6.901176 70.3018217,7.149024 70.8315506,7.149024 C70.9671687,7.14858905 71.1026508,7.14037159 71.2373312,7.124412 L71.2373312,8.012688 C71.0462292,8.04694886 70.8526085,8.06517605 70.6584828,8.06718 C69.4750647,8.06718 69.0037954,7.649988 69.0037954,6.608196 L69.0037954,3.556596 L68.1478087,3.556596 L68.1478087,2.658348 L69.0037954,2.658348 L69.0037954,1.288476 L70.0691088,1.288476 Z M72.6908706,0.5244 L73.7456583,0.5244 L73.7456583,3.50214 L73.8298512,3.50214 C74.1196679,2.86460227 74.7771558,2.47750505 75.4739531,2.534172 C76.0023847,2.50535674 76.5161177,2.71416445 76.8752229,3.10372062 C77.2343279,3.49327679 77.401402,4.02300677 77.3309381,4.548624 L77.3309381,8.0373 L76.2657325,8.0373 L76.2657325,4.8117 C76.2657325,3.948612 75.864586,3.5115 75.1127177,3.5115 C74.7425002,3.4810724 74.3777564,3.61594915 74.1159971,3.8800722 C73.854238,4.14419526 73.7221546,4.51063237 73.7550583,4.88142 L73.7550583,8.037276 L72.6909185,8.037276 L72.6908706,0.5244 Z M83.5357643,6.578316 C83.2373676,7.59757138 82.2531121,8.25612365 81.1993315,8.141592 C80.4803379,8.16061224 79.7893451,7.86195684 79.3096898,7.32486619 C78.8300346,6.78777556 78.6102079,6.06654713 78.708535,5.35254 C78.6128196,4.63654858 78.8318226,3.91416448 79.3088068,3.37253635 C79.7857911,2.83090822 80.4738215,2.5233321 81.1946494,2.529492 C82.6949732,2.529492 83.6000795,3.556692 83.6000795,5.253492 L83.6000795,5.6256 L79.7925526,5.6256 L79.7925526,5.68536 C79.7588587,6.08632817 79.8955104,6.4829373 80.1689008,6.77764884 C80.4422913,7.07236038 80.827053,7.2378287 81.2285613,7.23336 C81.7491799,7.29599362 82.2559663,7.03719965 82.5113799,6.57828 L83.5357643,6.578316 Z M79.7925287,4.836912 L82.516026,4.836912 C82.5431518,4.47019253 82.4144802,4.10904608 82.1617201,3.84247091 C81.9089601,3.57589573 81.5556184,3.42868348 81.1887699,3.437112 C80.8169514,3.43243069 80.4590042,3.57842549 80.1961255,3.84197866 C79.9332469,4.10553184 79.7877186,4.46430449 79.7925526,4.836912 L79.7925287,4.836912 Z"></path>
    </g>
  </g>
</svg>
