<?xml version="1.0" encoding="UTF-8"?><svg xmlns="http://www.w3.org/2000/svg" xmlns:xlink="http://www.w3.org/1999/xlink" width="97px" height="17px" viewBox="0 0 97 17" version="1.1">
    <g id="Artboard" stroke="none" stroke-width="1" fill="none" fill-rule="evenodd">
        <g id="icons8-Material-Rounded-85185-50-5fcd3a" transform="translate(2.000000, 2.000000)" fill="#FFBD03" fill-rule="nonzero">
            <path d="M7.5,11.6789347 L11.2479938,13.8882296 C11.839187,14.2364112 12.568985,13.7182838 12.4119935,13.0619891 L11.4177142,8.89624587 L14.7286782,6.09283184 C15.2519829,5.65207813 14.9719443,4.81478423 14.2845761,4.75675415 L9.92417402,4.39613728 L8.21848337,0.46527825 C7.94975945,-0.15509275 7.05024055,-0.15509275 6.78151663,0.46527825 L5.07582598,4.39613728 L0.715423874,4.75675415 C0.0280557462,4.81478423 -0.251982866,5.65207813 0.271321769,6.09283184 L3.58228575,8.89624587 L2.58800651,13.0619891 C2.43101498,13.7182838 3.16081304,14.2364112 3.75200623,13.8882296 L7.5,11.6789347 Z" id="Path"/>
        </g>
        <g id="icons8-Material-Rounded-85185-50-5fcd3a" transform="translate(21.000000, 2.000000)" fill="#FFBD03" fill-rule="nonzero">
            <path d="M8,11.6789347 L11.99786,13.8882296 C12.6284661,14.2364112 13.4069174,13.7182838 13.2394597,13.0619891 L12.1788952,8.89624587 L15.7105901,6.09283184 C16.2687817,5.65207813 15.9700739,4.81478423 15.2368812,4.75675415 L10.5857856,4.39613728 L8.76638226,0.46527825 C8.47974342,-0.15509275 7.52025658,-0.15509275 7.23361774,0.46527825 L5.41421438,4.39613728 L0.763118799,4.75675415 C0.0299261292,4.81478423 -0.268781724,5.65207813 0.289409886,6.09283184 L3.8211048,8.89624587 L2.76054028,13.0619891 C2.59308264,13.7182838 3.37153391,14.2364112 4.00213998,13.8882296 L8,11.6789347 Z" id="Path"/>
        </g>
        <g id="icons8-Material-Rounded-85185-50-5fcd3a" transform="translate(41.000000, 2.000000)" fill="#FFBD03" fill-rule="nonzero">
            <path d="M7.5,11.6789347 L11.2479938,13.8882296 C11.839187,14.2364112 12.568985,13.7182838 12.4119935,13.0619891 L11.4177142,8.89624587 L14.7286782,6.09283184 C15.2519829,5.65207813 14.9719443,4.81478423 14.2845761,4.75675415 L9.92417402,4.39613728 L8.21848337,0.46527825 C7.94975945,-0.15509275 7.05024055,-0.15509275 6.78151663,0.46527825 L5.07582598,4.39613728 L0.715423874,4.75675415 C0.0280557462,4.81478423 -0.251982866,5.65207813 0.271321769,6.09283184 L3.58228575,8.89624587 L2.58800651,13.0619891 C2.43101498,13.7182838 3.16081304,14.2364112 3.75200623,13.8882296 L7.5,11.6789347 Z" id="Path"/>
        </g>
        <g id="icons8-Material-Rounded-85185-50-5fcd3a" transform="translate(60.000000, 2.000000)" fill="#FFBD03" fill-rule="nonzero">
            <path d="M8,11.6789347 L11.99786,13.8882296 C12.6284661,14.2364112 13.4069174,13.7182838 13.2394597,13.0619891 L12.1788952,8.89624587 L15.7105901,6.09283184 C16.2687817,5.65207813 15.9700739,4.81478423 15.2368812,4.75675415 L10.5857856,4.39613728 L8.76638226,0.46527825 C8.47974342,-0.15509275 7.52025658,-0.15509275 7.23361774,0.46527825 L5.41421438,4.39613728 L0.763118799,4.75675415 C0.0299261292,4.81478423 -0.268781724,5.65207813 0.289409886,6.09283184 L3.8211048,8.89624587 L2.76054028,13.0619891 C2.59308264,13.7182838 3.37153391,14.2364112 4.00213998,13.8882296 L8,11.6789347 Z" id="Path"/>
        </g>
        <g id="icons8-Material-Rounded-85185-50-5fcd3a" transform="translate(80.000000, 2.000000)" fill="#FFBD03" fill-rule="nonzero">
            <path d="M7.5,11.6789347 L11.2479938,13.8882296 C11.839187,14.2364112 12.568985,13.7182838 12.4119935,13.0619891 L11.4177142,8.89624587 L14.7286782,6.09283184 C15.2519829,5.65207813 14.9719443,4.81478423 14.2845761,4.75675415 L9.92417402,4.39613728 L8.21848337,0.46527825 C7.94975945,-0.15509275 7.05024055,-0.15509275 6.78151663,0.46527825 L5.07582598,4.39613728 L0.715423874,4.75675415 C0.0280557462,4.81478423 -0.251982866,5.65207813 0.271321769,6.09283184 L3.58228575,8.89624587 L2.58800651,13.0619891 C2.43101498,13.7182838 3.16081304,14.2364112 3.75200623,13.8882296 L7.5,11.6789347 Z" id="Path"/>
        </g>
    </g>
</svg>