<svg xmlns="http://www.w3.org/2000/svg" width="190" height="48"><g fill="none" fill-rule="evenodd"><rect width="190" height="48" fill="#000" rx="10"/><g fill="#FFF" fill-rule="nonzero"><path d="M30.534 24.496a5.939 5.939 0 0 1 2.828-4.982 6.079 6.079 0 0 0-4.79-2.59c-2.015-.21-3.968 1.207-4.995 1.207-1.047 0-2.628-1.185-4.33-1.15a6.378 6.378 0 0 0-5.368 3.273c-2.32 4.018-.59 9.924 1.634 13.172 1.112 1.59 2.412 3.367 4.113 3.304 1.664-.07 2.286-1.062 4.295-1.062 1.99 0 2.574 1.062 4.31 1.021 1.785-.029 2.91-1.597 3.984-3.202a13.154 13.154 0 0 0 1.822-3.712 5.738 5.738 0 0 1-3.503-5.279Zm-3.278-9.707a5.847 5.847 0 0 0 1.337-4.189 5.949 5.949 0 0 0-3.849 1.992 5.564 5.564 0 0 0-1.372 4.033 4.919 4.919 0 0 0 3.884-1.836ZM56.261 36.595V25.627h-.073l-4.482 10.854h-1.71l-4.494-10.854h-.072v10.968h-2.102V21.694h2.67l4.811 11.762h.083l4.802-11.762h2.68v14.901zM60.15 33.507c0-1.9 1.452-3.046 4.03-3.201l2.967-.165v-.827c0-1.208-.794-1.89-2.145-1.89a2.072 2.072 0 0 0-2.276 1.53h-2.082c.062-1.963 1.886-3.357 4.42-3.357 2.587 0 4.298 1.415 4.298 3.552v7.446h-2.133v-1.787h-.051a3.874 3.874 0 0 1-3.422 1.974 3.282 3.282 0 0 1-2.527-.837 3.297 3.297 0 0 1-1.08-2.438Zm6.997-.98v-.837l-2.67.165c-1.33.083-2.081.661-2.081 1.59 0 .95.783 1.57 1.979 1.57.699.048 1.388-.19 1.91-.658a2.607 2.607 0 0 0 .862-1.83Zm11.56-3.058a2.395 2.395 0 0 0-2.556-2.003c-1.71 0-2.844 1.436-2.844 3.698 0 2.313 1.144 3.706 2.864 3.706a2.334 2.334 0 0 0 2.536-1.95h2.143a4.335 4.335 0 0 1-4.699 3.81c-3.091 0-5.11-2.117-5.11-5.566 0-3.378 2.019-5.567 5.09-5.567a4.36 4.36 0 0 1 4.7 3.872h-2.124Zm16.604 3.099h-5.668l-1.362 4.027h-2.4l5.368-14.901h2.495l5.368 14.901h-2.441l-1.36-4.027Zm-5.081-1.859h4.493l-2.215-6.537h-.062L90.23 30.71Zm20.477.455c0 3.376-1.803 5.545-4.525 5.545a3.674 3.674 0 0 1-3.41-1.9h-.052v5.38h-2.225V25.731h2.154v1.807h.04a3.844 3.844 0 0 1 3.453-1.92c2.751 0 4.565 2.179 4.565 5.546Zm-2.288 0c0-2.2-1.134-3.646-2.865-3.646-1.7 0-2.843 1.477-2.843 3.646 0 2.189 1.143 3.655 2.843 3.655 1.731 0 2.865-1.436 2.865-3.655Zm14.22 0c0 3.376-1.803 5.545-4.524 5.545a3.674 3.674 0 0 1-3.411-1.9h-.052v5.38h-2.225V25.731h2.154v1.807h.04a3.844 3.844 0 0 1 3.453-1.92c2.752 0 4.565 2.179 4.565 5.546Zm-2.287 0c0-2.2-1.134-3.646-2.865-3.646-1.7 0-2.844 1.477-2.844 3.646 0 2.189 1.144 3.655 2.844 3.655 1.73 0 2.865-1.436 2.865-3.655Zm10.174 1.28c.164 1.477 1.597 2.447 3.555 2.447 1.875 0 3.225-.97 3.225-2.302 0-1.157-.814-1.85-2.741-2.324l-1.927-.465c-2.731-.661-3.999-1.941-3.999-4.018 0-2.57 2.236-4.337 5.411-4.337 3.142 0 5.296 1.766 5.369 4.337h-2.247c-.134-1.487-1.36-2.384-3.153-2.384s-3.02.908-3.02 2.23c0 1.053.784 1.673 2.7 2.148l1.639.403c3.05.723 4.318 1.951 4.318 4.13 0 2.789-2.216 4.535-5.74 4.535-3.298 0-5.525-1.705-5.668-4.4h2.278Zm13.933-9.284v2.57h2.061v1.767h-2.061v5.99c0 .93.413 1.363 1.319 1.363a6.94 6.94 0 0 0 .732-.051v1.755c-.408.077-.822.111-1.236.103-2.195 0-3.051-.826-3.051-2.933v-6.227h-1.576V25.73h1.576V23.16h2.236Zm3.254 8.004c0-3.419 2.01-5.567 5.142-5.567 3.143 0 5.143 2.148 5.143 5.567 0 3.427-1.99 5.566-5.143 5.566-3.153 0-5.142-2.139-5.142-5.566Zm8.018 0c0-2.345-1.073-3.73-2.876-3.73s-2.876 1.395-2.876 3.73c0 2.354 1.073 3.727 2.876 3.727s2.876-1.373 2.876-3.727Zm4.103-5.433h2.122v1.85h.052a2.587 2.587 0 0 1 2.608-1.964c.256 0 .512.027.762.083v2.086a3.105 3.105 0 0 0-1-.134 2.24 2.24 0 0 0-1.733.715 2.25 2.25 0 0 0-.586 1.784v6.444h-2.225V25.731Zm15.803 7.673c-.3 1.973-2.216 3.326-4.668 3.326-3.154 0-5.112-2.118-5.112-5.515 0-3.408 1.969-5.618 5.018-5.618 3 0 4.886 2.065 4.886 5.36v.763h-7.657v.135c-.072.809.207 1.61.765 2.198a2.82 2.82 0 0 0 2.151.88 2.452 2.452 0 0 0 2.504-1.529h2.113Zm-7.523-3.242h5.42a2.616 2.616 0 0 0-.728-1.961 2.604 2.604 0 0 0-1.93-.797 2.742 2.742 0 0 0-1.954.803 2.753 2.753 0 0 0-.808 1.955Z"/></g><g fill="#FFF" fill-rule="nonzero"><path d="M46.294 10.477a3.157 3.157 0 0 1 2.522.982c.65.689.96 1.634.84 2.576 0 2.288-1.233 3.602-3.362 3.602h-2.58v-7.16h2.58Zm-1.47 6.148h1.346a2.244 2.244 0 0 0 1.79-.726c.457-.5.665-1.179.567-1.85a2.26 2.26 0 0 0-.576-1.836 2.25 2.25 0 0 0-1.78-.724h-1.348v5.136Zm6.086-1.692a2.562 2.562 0 0 1 1.196-2.419 2.55 2.55 0 0 1 2.694 0 2.562 2.562 0 0 1 1.195 2.42 2.562 2.562 0 0 1-1.194 2.422 2.55 2.55 0 0 1-2.697 0 2.562 2.562 0 0 1-1.194-2.423Zm3.99 0c0-1.171-.524-1.856-1.446-1.856-.925 0-1.445.685-1.445 1.856 0 1.18.52 1.86 1.445 1.86.922 0 1.447-.684 1.447-1.86ZM62.755 17.638h-1.104l-1.113-3.981h-.085l-1.109 3.981h-1.093l-1.488-5.404h1.08l.966 4.123h.08l1.109-4.123h1.02l1.109 4.123h.084l.961-4.123h1.065zM65.486 12.234h1.025v.858h.08a1.614 1.614 0 0 1 1.608-.963 1.752 1.752 0 0 1 1.415.556c.364.39.53.926.452 1.454v3.498H69v-3.23c0-.868-.376-1.3-1.163-1.3a1.236 1.236 0 0 0-1.288 1.37v3.16h-1.064v-5.403ZM71.761 10.124h1.064v7.514h-1.064zM74.305 14.933a2.562 2.562 0 0 1 1.195-2.419 2.55 2.55 0 0 1 2.694 0 2.562 2.562 0 0 1 1.196 2.42 2.562 2.562 0 0 1-1.194 2.422 2.55 2.55 0 0 1-2.697 0 2.562 2.562 0 0 1-1.194-2.423Zm3.99 0c0-1.171-.524-1.856-1.446-1.856-.925 0-1.445.685-1.445 1.856 0 1.18.52 1.86 1.445 1.86.922 0 1.447-.684 1.447-1.86Zm2.215 1.176c0-.972.723-1.533 2.006-1.613l1.46-.084v-.467c0-.57-.376-.893-1.103-.893-.594 0-1.006.219-1.124.6h-1.03c.108-.927.98-1.522 2.203-1.522 1.352 0 2.114.674 2.114 1.815v3.692h-1.024v-.76h-.085a1.813 1.813 0 0 1-1.62.85 1.627 1.627 0 0 1-1.797-1.618Zm3.467-.462v-.451l-1.317.084c-.743.05-1.08.303-1.08.78 0 .486.421.769 1 .769a1.27 1.27 0 0 0 1.397-1.182Zm2.458-.714c0-1.707.875-2.789 2.238-2.789a1.776 1.776 0 0 1 1.653.948h.08v-2.968h1.064v7.513h-1.02v-.853h-.084a1.87 1.87 0 0 1-1.693.942c-1.372 0-2.238-1.081-2.238-2.793Zm1.099 0c0 1.146.539 1.836 1.44 1.836.897 0 1.452-.7 1.452-1.831 0-1.126-.56-1.836-1.451-1.836-.896 0-1.441.694-1.441 1.831Zm8.339 0a2.562 2.562 0 0 1 1.196-2.419 2.55 2.55 0 0 1 2.694 0 2.562 2.562 0 0 1 1.196 2.42 2.562 2.562 0 0 1-1.195 2.422 2.55 2.55 0 0 1-2.697 0 2.562 2.562 0 0 1-1.194-2.423Zm3.99 0c0-1.171-.524-1.856-1.446-1.856-.925 0-1.445.685-1.445 1.856 0 1.18.52 1.86 1.445 1.86.922 0 1.447-.684 1.447-1.86Zm2.524-2.7h1.024v.86h.08a1.614 1.614 0 0 1 1.609-.964 1.752 1.752 0 0 1 1.415.556c.363.39.53.926.451 1.454v3.498h-1.064v-3.23c0-.868-.377-1.3-1.164-1.3a1.236 1.236 0 0 0-1.287 1.37v3.16h-1.064v-5.403Zm10.592-1.345v1.37h1.168v.899h-1.168v2.778c0 .566.233.814.763.814.135 0 .27-.009.405-.025v.889a3.484 3.484 0 0 1-.579.054c-1.183 0-1.654-.417-1.654-1.459v-3.051h-.856v-.899h.856v-1.37h1.065Zm2.622-.764h1.055v2.978h.084a1.659 1.659 0 0 1 1.644-.968 1.774 1.774 0 0 1 1.401.57c.36.39.526.919.456 1.445v3.488h-1.065v-3.225c0-.863-.401-1.3-1.153-1.3a1.258 1.258 0 0 0-1.358 1.37v3.155h-1.064v-7.513Zm10.845 6.054a2.189 2.189 0 0 1-2.337 1.564 2.447 2.447 0 0 1-1.89-.817 2.458 2.458 0 0 1-.6-1.972 2.496 2.496 0 0 1 .6-1.98 2.485 2.485 0 0 1 1.886-.844c1.5 0 2.405 1.028 2.405 2.724v.373h-3.807v.06a1.43 1.43 0 0 0 1.436 1.547 1.292 1.292 0 0 0 1.282-.655h1.025Zm-3.743-1.741h2.723a1.305 1.305 0 0 0-1.327-1.4 1.377 1.377 0 0 0-1.396 1.4Z"/></g></g></svg>