<svg xmlns="http://www.w3.org/2000/svg" width="97" height="17" viewBox="0 0 97 17"><g id="Artboard" fill="#ffbd03" fill-rule="nonzero" stroke="none" stroke-width="1"><g id="icons8-Material-Rounded-85185-50-5fcd3a" transform="translate(2 2)"><path id="Path" d="m7.5 11.679 3.748 2.21c.591.347 1.321-.17 1.164-.827l-.994-4.166 3.31-2.803c.524-.44.244-1.278-.443-1.336l-4.36-.36L8.217.464C7.95-.155 7.05-.155 6.782.466L5.076 4.396l-4.36.36c-.688.059-.968.896-.445 1.337l3.311 2.803-.994 4.166c-.157.656.573 1.174 1.164.826Z"/></g><g id="icons8-Material-Rounded-85185-50-5fcd3a" transform="translate(21 2)"><path id="Path" d="m8 11.679 3.998 2.21c.63.347 1.409-.17 1.241-.827l-1.06-4.166 3.532-2.803c.558-.44.26-1.278-.474-1.336l-4.651-.36L8.766.464C8.48-.155 7.52-.155 7.234.466l-1.82 3.931-4.65.36C.03 4.816-.27 5.653.288 6.094l3.532 2.803-1.06 4.166c-.168.656.61 1.174 1.241.826Z"/></g><g id="icons8-Material-Rounded-85185-50-5fcd3a" transform="translate(41 2)"><path id="Path" d="m7.5 11.679 3.748 2.21c.591.347 1.321-.17 1.164-.827l-.994-4.166 3.31-2.803c.524-.44.244-1.278-.443-1.336l-4.36-.36L8.217.464C7.95-.155 7.05-.155 6.782.466L5.076 4.396l-4.36.36c-.688.059-.968.896-.445 1.337l3.311 2.803-.994 4.166c-.157.656.573 1.174 1.164.826Z"/></g><g id="icons8-Material-Rounded-85185-50-5fcd3a" transform="translate(60 2)"><path id="Path" d="m8 11.679 3.998 2.21c.63.347 1.409-.17 1.241-.827l-1.06-4.166 3.532-2.803c.558-.44.26-1.278-.474-1.336l-4.651-.36L8.766.464C8.48-.155 7.52-.155 7.234.466l-1.82 3.931-4.65.36C.03 4.816-.27 5.653.288 6.094l3.532 2.803-1.06 4.166c-.168.656.61 1.174 1.241.826Z"/></g><g id="icons8-Material-Rounded-85185-50-5fcd3a" transform="translate(80 2)"><path id="Path" d="m7.5 11.679 3.748 2.21c.591.347 1.321-.17 1.164-.827l-.994-4.166 3.31-2.803c.524-.44.244-1.278-.443-1.336l-4.36-.36L8.217.464C7.95-.155 7.05-.155 6.782.466L5.076 4.396l-4.36.36c-.688.059-.968.896-.445 1.337l3.311 2.803-.994 4.166c-.157.656.573 1.174 1.164.826Z"/></g></g></svg>