<svg xmlns="http://www.w3.org/2000/svg" width="66.667" height="66.667" viewBox="0 0 50 50"><path id="surface1014" d="M46.668 11.563a17.8 17.8 0 0 1-5.11 1.398 8.88 8.88 0 0 0 3.91-4.918 17.9 17.9 0 0 1-5.648 2.16 8.86 8.86 0 0 0-6.488-2.809 8.89 8.89 0 0 0-8.89 8.89c0 .696.081 1.376.23 2.025-7.387-.372-13.938-3.91-18.324-9.29a8.9 8.9 0 0 0-1.2 4.469 8.87 8.87 0 0 0 3.953 7.398 8.9 8.9 0 0 1-4.027-1.11v.11a8.894 8.894 0 0 0 7.129 8.719 8.9 8.9 0 0 1-4.012.152 8.9 8.9 0 0 0 8.305 6.176 17.85 17.85 0 0 1-11.043 3.805c-.715 0-1.426-.039-2.121-.125a25.15 25.15 0 0 0 13.629 3.996c16.352 0 25.293-13.547 25.293-25.297q0-.573-.027-1.148a18.1 18.1 0 0 0 4.441-4.602m0 0" style="stroke:none;fill-rule:nonzero;fill:#2a2a2a;fill-opacity:1"/></svg>